<?xml version="1.0" encoding="iso-8859-1"?>
<!-- Uploaded to: SVG Repo, www.svgrepo.com, Generator: SVG Repo Mixer Tools -->
<svg height="800px" width="800px" version="1.1" id="Layer_1" xmlns="http://www.w3.org/2000/svg" xmlns:xlink="http://www.w3.org/1999/xlink" 
	 viewBox="0 0 499.521 499.521" xml:space="preserve">
<path style="fill:#025DC9;" d="M455.467,25.721l-182.4-10.4c-8.8-0.8-16.8,2.4-23.2,8.8l-231.2,216.8c-12,12-18.4,38.4-7.2,50.4
	l199.2,199.2c12,12,30.4,12,42.4,0l231.2-231.2c6.4-6.4,8.8-14.4,8.8-23.2l-9.6-186.4C482.667,34.521,470.667,26.521,455.467,25.721
	z"/>
<path style="fill:#0093F7;" d="M455.467,10.521l-182.4-10.4c-8.8-0.8-16.8,2.4-23.2,8.8l-231.2,232c-12,12-12,30.4,0,42.4
	l192.8,192.8c12,12,30.4,12,42.4,0l231.2-231.2c6.4-6.4,8.8-14.4,8.8-23.2l-10.4-183.2
	C482.667,23.321,470.667,11.321,455.467,10.521z"/>
<path style="fill:#0078DB;" d="M211.467,475.321c12,12,30.4,12,42.4,0l231.2-231.2c6.4-6.4,8.8-14.4,8.8-23.2l-10.4-182.4
	c-0.8-15.2-12.8-27.2-28-28l-182.4-10.4c-8.8-0.8-16.8,2.4-23.2,8.8"/>
<path style="fill:#025DC9;" d="M445.067,98.521c0,27.2-22.4,64-48.8,64c-27.2,0-48.8-36.8-48.8-64s22.4-48.8,48.8-48.8
	C422.667,49.721,445.067,71.321,445.067,98.521z"/>
<circle style="fill:#FF5B00;" cx="395.467" cy="98.521" r="48.8"/>
<path style="fill:#DD4400;" d="M361.067,64.121c19.2-19.2,50.4-19.2,69.6,0s19.2,50.4,0,69.6"/>
<circle style="fill:#EBF0F2;" cx="395.467" cy="98.521" r="28.8"/>
<path style="fill:#CADFE5;" d="M416.267,77.721c11.2,11.2,11.2,29.6,0,41.6c-11.2,11.2-29.6,11.2-41.6,0"/>
<g>
	<path style="fill:#025DC9;" d="M113.867,235.321c-20.8,20.8-20.8,55.2,0,76s55.2,20.8,76,0s20.8-55.2,0-76
		C168.267,214.521,134.667,214.521,113.867,235.321z M169.867,291.321c-9.6,9.6-25.6,9.6-36,0c-9.6-9.6-9.6-25.6,0-36
		c9.6-9.6,25.6-9.6,36,0C179.467,264.921,179.467,280.921,169.867,291.321z"/>
	<path style="fill:#025DC9;" d="M375.467,235.321c-20.8-20.8-55.2-20.8-76,0s-20.8,55.2,0,76s55.2,20.8,76,0
		C396.267,289.721,396.267,256.121,375.467,235.321z M355.467,291.321c-9.6,9.6-25.6,9.6-36,0c-9.6-9.6-9.6-25.6,0-36
		c9.6-9.6,25.6-9.6,36,0C365.067,264.921,365.067,280.921,355.467,291.321z"/>
	<path style="fill:#025DC9;" d="M260.267,127.321C260.267,126.521,260.267,126.521,260.267,127.321c-0.8-1.6-0.8-2.4-0.8-3.2v-0.8
		c-0.8-0.8-1.6-1.6-2.4-1.6l0,0c-2.4-3.2-5.6-4.8-9.6-4.8c-8,0-13.6,6.4-13.6,14.4v256.8v32.8c0,8,5.6,14.4,13.6,14.4
		c4,0,7.2-1.6,9.6-4s4-6.4,4-9.6v-289.6C261.067,128.921,260.267,128.121,260.267,127.321z"/>
</g>
<path style="fill:#EBF0F2;" d="M177.067,298.521c-20.8,20.8-55.2,20.8-76,0s-20.8-55.2,0-76s55.2-20.8,76,0
	S197.867,276.921,177.067,298.521z M121.067,242.521c-9.6,9.6-9.6,25.6,0,36c9.6,9.6,25.6,9.6,36,0c9.6-9.6,9.6-25.6,0-36
	C146.667,232.121,130.667,232.121,121.067,242.521z"/>
<path style="fill:#CADFE5;" d="M362.667,298.521c-20.8,20.8-55.2,20.8-76,0s-20.8-55.2,0-76s55.2-20.8,76,0
	C383.467,243.321,383.467,276.921,362.667,298.521z M306.667,242.521c-9.6,9.6-9.6,25.6,0,36c9.6,9.6,25.6,9.6,36,0
	c9.6-9.6,9.6-25.6,0-36C333.067,232.921,317.067,232.921,306.667,242.521z"/>
<path style="fill:#EBF0F2;" d="M245.067,416.921c-2.4,2.4-7.2,4-11.2,4c-8,0-15.2-6.4-15.2-14.4v-288.8c0-8,8-14.4,16-14.4
	s16,6.4,16,14.4v289.6C249.867,411.321,247.467,414.521,245.067,416.921z"/>
<path style="fill:#CADFE5;" d="M245.067,416.921c2.4-2.4,4.8-6.4,4.8-9.6v-289.6c0-4.8-4-8.8-8-11.2l-24,268v32.8
	c0,8,8,14.4,15.2,14.4C237.067,420.921,241.867,419.321,245.067,416.921z"/>
</svg>